<?xml version="1.0" standalone="no"?>
<!DOCTYPE svg PUBLIC "-//W3C//DTD SVG 20010904//EN"
 "http://www.w3.org/TR/2001/REC-SVG-20010904/DTD/svg10.dtd">
<svg version="1.0" xmlns="http://www.w3.org/2000/svg"
 width="1072.000000pt" height="1072.000000pt" viewBox="0 0 1072.000000 1072.000000"
 preserveAspectRatio="xMidYMid meet">
<metadata>
Created by potrace 1.14, written by Peter Selinger 2001-2017
</metadata>
<g transform="translate(0.000000,1072.000000) scale(0.100000,-0.100000)"
fill="#000000" stroke="none">
<path d="M9895 9341 c-81 -23 -168 -64 -218 -103 -23 -18 -1456 -1445 -3183
-3173 -1728 -1727 -3153 -3151 -3167 -3163 l-25 -24 -1134 1134 c-624 624
-1154 1147 -1178 1164 -57 37 -144 79 -192 90 -5 1 -9 2 -10 3 -18 14 -208 19
-273 8 -68 -12 -166 -48 -185 -67 -3 -3 -21 -14 -40 -24 -56 -31 -157 -136
-198 -206 -69 -117 -92 -207 -88 -335 5 -130 18 -179 75 -290 33 -65 141 -176
1426 -1461 764 -765 1412 -1405 1438 -1423 42 -29 125 -71 152 -77 41 -10 58
-15 78 -20 12 -4 63 -8 112 -10 137 -4 259 31 372 107 26 18 528 512 1116
1098 587 586 1072 1068 1077 1069 6 2 10 10 10 17 0 7 4 15 10 17 14 4 670
660 670 669 0 4 5 9 10 11 6 2 904 896 1996 1987 1445 1444 1997 2001 2029
2050 64 96 97 204 100 319 2 95 -14 190 -40 249 -8 17 -15 34 -15 37 0 17 -76
126 -119 169 -57 60 -180 144 -221 151 -3 1 -10 5 -16 9 -25 16 -154 35 -229
35 -44 0 -107 -8 -140 -17z"/>
</g>
</svg>
