<svg width="67" height="50" viewBox="0 0 67 50" fill="none" xmlns="http://www.w3.org/2000/svg">
<path d="M20.646 40.5268L6.72941 26.6102C6.3655 26.2419 5.9321 25.9494 5.45432 25.7498C4.97654 25.5502 4.4639 25.4474 3.9461 25.4474C3.42831 25.4474 2.91566 25.5502 2.43788 25.7498C1.9601 25.9494 1.5267 26.2419 1.16279 26.6102C0.794436 26.9741 0.501983 27.4075 0.302382 27.8853C0.10278 28.3631 0 28.8757 0 29.3935C0 29.9113 0.10278 30.424 0.302382 30.9018C0.501983 31.3795 0.794436 31.8129 1.16279 32.1769L17.8229 48.837C19.3736 50.3877 21.8786 50.3877 23.4293 48.837L65.5766 6.72941C65.945 6.3655 66.2374 5.9321 66.437 5.45432C66.6366 4.97654 66.7394 4.4639 66.7394 3.9461C66.7394 3.4283 66.6366 2.91566 66.437 2.43788C66.2374 1.9601 65.945 1.5267 65.5766 1.16279C65.2127 0.794436 64.7793 0.501982 64.3015 0.302381C63.8237 0.102779 63.3111 0 62.7933 0C62.2755 0 61.7629 0.102779 61.2851 0.302381C60.8073 0.501982 60.3739 0.794436 60.01 1.16279L20.646 40.5268Z" fill="#222222"/>
</svg>
